<mxfile host="app.diagrams.net" modified="2023-06-08T10:26:15.888Z" agent="Mozilla/5.0 (X11; Linux x86_64) AppleWebKit/537.36 (KHTML, like Gecko) Chrome/114.0.0.0 Safari/537.36" etag="3qvQXr3zddtmlMUK7pY2" version="21.3.7" type="device">
  <diagram name="P치gina-1" id="NvaiPDKPPmwDWQrbouLH">
    <mxGraphModel dx="1318" dy="579" grid="1" gridSize="10" guides="1" tooltips="1" connect="1" arrows="1" fold="1" page="1" pageScale="1" pageWidth="827" pageHeight="1169" math="0" shadow="0">
      <root>
        <mxCell id="0" />
        <mxCell id="1" parent="0" />
        <mxCell id="pOrIQ-wCYDNExHaCE5YG-1" value="" style="ellipse;whiteSpace=wrap;html=1;aspect=fixed;" vertex="1" parent="1">
          <mxGeometry x="360" y="560" width="40" height="40" as="geometry" />
        </mxCell>
        <mxCell id="pOrIQ-wCYDNExHaCE5YG-2" value="" style="ellipse;whiteSpace=wrap;html=1;aspect=fixed;" vertex="1" parent="1">
          <mxGeometry x="360" y="60" width="40" height="40" as="geometry" />
        </mxCell>
        <mxCell id="pOrIQ-wCYDNExHaCE5YG-3" value="" style="shape=trapezoid;perimeter=trapezoidPerimeter;whiteSpace=wrap;html=1;fixedSize=1;" vertex="1" parent="1">
          <mxGeometry x="320" y="220" width="120" height="60" as="geometry" />
        </mxCell>
        <mxCell id="pOrIQ-wCYDNExHaCE5YG-19" value="" style="edgeStyle=orthogonalEdgeStyle;rounded=0;orthogonalLoop=1;jettySize=auto;html=1;entryX=0.5;entryY=0;entryDx=0;entryDy=0;" edge="1" parent="1" source="pOrIQ-wCYDNExHaCE5YG-4" target="pOrIQ-wCYDNExHaCE5YG-3">
          <mxGeometry relative="1" as="geometry">
            <mxPoint x="380" y="200" as="targetPoint" />
          </mxGeometry>
        </mxCell>
        <mxCell id="pOrIQ-wCYDNExHaCE5YG-4" value="" style="shape=trapezoid;perimeter=trapezoidPerimeter;whiteSpace=wrap;html=1;fixedSize=1;" vertex="1" parent="1">
          <mxGeometry x="320" y="130" width="120" height="60" as="geometry" />
        </mxCell>
        <mxCell id="pOrIQ-wCYDNExHaCE5YG-21" value="" style="edgeStyle=orthogonalEdgeStyle;rounded=0;orthogonalLoop=1;jettySize=auto;html=1;entryX=0.5;entryY=0;entryDx=0;entryDy=0;" edge="1" parent="1" source="pOrIQ-wCYDNExHaCE5YG-5" target="pOrIQ-wCYDNExHaCE5YG-6">
          <mxGeometry relative="1" as="geometry">
            <mxPoint x="390" y="390" as="targetPoint" />
          </mxGeometry>
        </mxCell>
        <mxCell id="pOrIQ-wCYDNExHaCE5YG-5" value="" style="shape=trapezoid;perimeter=trapezoidPerimeter;whiteSpace=wrap;html=1;fixedSize=1;direction=west;" vertex="1" parent="1">
          <mxGeometry x="320" y="310" width="120" height="60" as="geometry" />
        </mxCell>
        <mxCell id="pOrIQ-wCYDNExHaCE5YG-24" value="" style="edgeStyle=orthogonalEdgeStyle;rounded=0;orthogonalLoop=1;jettySize=auto;html=1;" edge="1" parent="1" source="pOrIQ-wCYDNExHaCE5YG-6">
          <mxGeometry relative="1" as="geometry">
            <mxPoint x="380" y="475" as="targetPoint" />
          </mxGeometry>
        </mxCell>
        <mxCell id="pOrIQ-wCYDNExHaCE5YG-6" value="" style="rounded=0;whiteSpace=wrap;html=1;" vertex="1" parent="1">
          <mxGeometry x="320" y="390" width="120" height="60" as="geometry" />
        </mxCell>
        <mxCell id="pOrIQ-wCYDNExHaCE5YG-23" value="" style="edgeStyle=orthogonalEdgeStyle;rounded=0;orthogonalLoop=1;jettySize=auto;html=1;" edge="1" parent="1" source="pOrIQ-wCYDNExHaCE5YG-7" target="pOrIQ-wCYDNExHaCE5YG-10">
          <mxGeometry relative="1" as="geometry" />
        </mxCell>
        <mxCell id="pOrIQ-wCYDNExHaCE5YG-7" value="" style="shape=trapezoid;perimeter=trapezoidPerimeter;whiteSpace=wrap;html=1;fixedSize=1;" vertex="1" parent="1">
          <mxGeometry x="320" y="480" width="120" height="60" as="geometry" />
        </mxCell>
        <mxCell id="pOrIQ-wCYDNExHaCE5YG-18" value="" style="edgeStyle=orthogonalEdgeStyle;rounded=0;orthogonalLoop=1;jettySize=auto;html=1;" edge="1" parent="1" source="pOrIQ-wCYDNExHaCE5YG-9">
          <mxGeometry relative="1" as="geometry">
            <mxPoint x="380" y="120" as="targetPoint" />
          </mxGeometry>
        </mxCell>
        <mxCell id="pOrIQ-wCYDNExHaCE5YG-9" value="I" style="text;html=1;strokeColor=none;fillColor=none;align=center;verticalAlign=middle;whiteSpace=wrap;rounded=0;" vertex="1" parent="1">
          <mxGeometry x="350" y="65" width="60" height="30" as="geometry" />
        </mxCell>
        <mxCell id="pOrIQ-wCYDNExHaCE5YG-10" value="F" style="text;html=1;strokeColor=none;fillColor=none;align=center;verticalAlign=middle;whiteSpace=wrap;rounded=0;" vertex="1" parent="1">
          <mxGeometry x="350" y="565" width="60" height="30" as="geometry" />
        </mxCell>
        <mxCell id="pOrIQ-wCYDNExHaCE5YG-12" value="&quot;Ingrese el a침o actual: &quot;" style="text;html=1;strokeColor=none;fillColor=none;align=center;verticalAlign=middle;whiteSpace=wrap;rounded=0;" vertex="1" parent="1">
          <mxGeometry x="350" y="145" width="60" height="30" as="geometry" />
        </mxCell>
        <mxCell id="pOrIQ-wCYDNExHaCE5YG-20" value="" style="edgeStyle=orthogonalEdgeStyle;rounded=0;orthogonalLoop=1;jettySize=auto;html=1;" edge="1" parent="1" source="pOrIQ-wCYDNExHaCE5YG-14">
          <mxGeometry relative="1" as="geometry">
            <mxPoint x="380" y="300" as="targetPoint" />
          </mxGeometry>
        </mxCell>
        <mxCell id="pOrIQ-wCYDNExHaCE5YG-14" value="&quot;Ingrese su a침o de nacimiento: &quot;" style="text;html=1;strokeColor=none;fillColor=none;align=center;verticalAlign=middle;whiteSpace=wrap;rounded=0;" vertex="1" parent="1">
          <mxGeometry x="350" y="240" width="60" height="30" as="geometry" />
        </mxCell>
        <mxCell id="pOrIQ-wCYDNExHaCE5YG-15" value="Actual, Nacimiento" style="text;html=1;strokeColor=none;fillColor=none;align=center;verticalAlign=middle;whiteSpace=wrap;rounded=0;" vertex="1" parent="1">
          <mxGeometry x="350" y="325" width="60" height="30" as="geometry" />
        </mxCell>
        <mxCell id="pOrIQ-wCYDNExHaCE5YG-16" value="R = Actual - Nacimiento" style="text;html=1;strokeColor=none;fillColor=none;align=center;verticalAlign=middle;whiteSpace=wrap;rounded=0;" vertex="1" parent="1">
          <mxGeometry x="350" y="405" width="60" height="30" as="geometry" />
        </mxCell>
        <mxCell id="pOrIQ-wCYDNExHaCE5YG-17" value="&quot;Ustred tiene &quot; + R + &quot;a침os&quot;" style="text;html=1;strokeColor=none;fillColor=none;align=center;verticalAlign=middle;whiteSpace=wrap;rounded=0;" vertex="1" parent="1">
          <mxGeometry x="340" y="500" width="60" height="30" as="geometry" />
        </mxCell>
      </root>
    </mxGraphModel>
  </diagram>
</mxfile>
